<svg width="64" height="64" viewBox="0 0 64 64" fill="none" xmlns="http://www.w3.org/2000/svg">
  <!-- 背景圆形 -->
  <circle cx="32" cy="32" r="30" fill="#2563eb" stroke="#1e40af" stroke-width="2"/>
  
  <!-- GitHub图标简化版 -->
  <path d="M32 12c-11.046 0-20 8.954-20 20 0 8.837 5.738 16.33 13.708 18.976.998.184 1.364-.434 1.364-.964 0-.476-.018-2.064-.028-3.742-5.56 1.208-6.734-2.364-6.734-2.364-.908-2.308-2.216-2.924-2.216-2.924-1.81-1.238.138-1.214.138-1.214 2.002.142 3.054 2.056 3.054 2.056 1.778 3.046 4.664 2.166 5.806 1.656.18-1.288.696-2.166 1.266-2.664-4.422-.502-9.07-2.21-9.07-9.838 0-2.174.776-3.95 2.048-5.344-.206-.502-.888-2.526.194-5.26 0 0 1.67-.534 5.472 2.042A19.017 19.017 0 0132 22.26c1.69.008 3.392.228 4.98.67 3.8-2.576 5.468-2.042 5.468-2.042 1.084 2.734.402 4.758.196 5.26 1.274 1.394 2.046 3.17 2.046 5.344 0 7.644-4.656 9.33-9.09 9.824.714.616 1.35 1.83 1.35 3.686 0 2.664-.024 4.814-.024 5.468 0 .534.36 1.156 1.376.96C46.256 48.324 52 40.834 52 32c0-11.046-8.954-20-20-20z" fill="white"/>
  
  <!-- HTML标签装饰 -->
  <rect x="8" y="46" width="16" height="12" rx="2" fill="#10b981" opacity="0.9"/>
  <text x="16" y="54" fill="white" font-family="monospace" font-size="8" text-anchor="middle">HTML</text>
  
  <!-- Pages符号 -->
  <circle cx="52" cy="16" r="8" fill="#f59e0b"/>
  <text x="52" y="20" fill="white" font-family="sans-serif" font-size="10" text-anchor="middle">P</text>
</svg>
